<svg width="20" height="20" viewBox="0 0 20 20" fill="none" xmlns="http://www.w3.org/2000/svg"><path d="M9.109.04C7.178.226 5.395.94 3.83 2.144c-.762.587-1.751 1.69-2.322 2.59-.246.388-.727 1.374-.9 1.844-1.211 3.314-.558 7.11 1.694 9.819a10.048 10.048 0 0 0 6.266 3.526c.794.121 2.084.121 2.878 0 3.006-.458 5.602-2.196 7.15-4.779a10.026 10.026 0 0 0 1.087-7.666 8.968 8.968 0 0 0-.704-1.863c-.516-1.053-1.052-1.8-1.912-2.665-.864-.861-1.61-1.397-2.662-1.914a9.709 9.709 0 0 0-2.893-.92C10.938.027 9.656-.016 9.11.04Zm2.033.762A9.15 9.15 0 0 1 16.56 3.46c1.771 1.776 2.713 4.05 2.713 6.559 0 2.148-.688 4.113-2.037 5.811-.3.384-1.028 1.131-1.075 1.112-.387-.169-3.506-1.777-3.585-1.851-.219-.204-.261-.372-.261-1.053v-.615l.25-.364c.285-.41.664-1.123.82-1.534.09-.234.13-.29.278-.38a1.21 1.21 0 0 0 .31-.293c.238-.32.265-.473.25-1.526-.012-.892-.016-.94-.106-1.108a1.717 1.717 0 0 0-.141-.234c-.04-.047-.055-.357-.066-1.331-.016-1.256-.016-1.276-.122-1.585a2.717 2.717 0 0 0-.692-1.12c-.691-.7-1.65-1.017-3.088-1.017-1.439 0-2.396.317-3.088 1.018-.34.348-.548.677-.692 1.119-.106.31-.106.329-.122 1.585-.011.974-.027 1.284-.066 1.33-.027.032-.09.138-.14.235-.09.173-.095.2-.095 1.174 0 .998 0 .998.102 1.218.059.12.164.29.239.371.078.09.156.235.187.349.137.508.454 1.17.845 1.776l.219.33-.016.63c-.012.582-.02.641-.106.794a.96.96 0 0 1-.234.262c-.078.055-.782.446-1.568.877-.786.43-1.482.814-1.552.853l-.125.074-.281-.274a9.853 9.853 0 0 1-1.975-2.841 9.429 9.429 0 0 1-.367-6.63 9.407 9.407 0 0 1 3.714-4.9A9.296 9.296 0 0 1 8.839.807c.57-.074 1.712-.074 2.303-.004Zm-.45 2.877c1.322.148 2.1.688 2.428 1.683.062.191.074.364.074 1.534v1.319l.13.133c.07.07.144.191.163.266.047.164.051 1.37.004 1.577a.664.664 0 0 1-.418.438c-.16.059-.168.075-.29.419a7.032 7.032 0 0 1-1.043 1.91l-.168.215v.712c0 .795.035 1.026.203 1.343.211.407.293.457 2.107 1.365 1.9.955 1.752.826 1.294 1.131a9.192 9.192 0 0 1-5.168 1.57 9.05 9.05 0 0 1-4.199-1.006c-.465-.239-1.391-.818-1.391-.869.003-.012.68-.391 1.513-.845.973-.529 1.575-.88 1.696-.99.23-.208.41-.556.465-.908.02-.141.04-.533.04-.869v-.614l-.235-.325a6.302 6.302 0 0 1-.919-1.941c-.062-.235-.094-.298-.2-.368-.245-.169-.269-.25-.28-1.006-.02-.888-.005-.986.19-1.198l.157-.168-.004-1.307c-.007-1.436 0-1.495.247-1.969.371-.704 1.126-1.103 2.353-1.248.262-.027.919-.02 1.251.016Z" fill="currentColor"/></svg>
