<svg width="15" height="20" viewBox="0 0 15 20" fill="none" xmlns="http://www.w3.org/2000/svg">
<path fill-rule="evenodd" clip-rule="evenodd" d="M2.0816 18.6426C2.0816 18.6426 2.38628 20 3.95453 20H11.0455C12.6136 20 12.9183 18.6426 12.9183 18.6426L14.3182 5.33336H0.681804L2.0816 18.6426ZM10.2273 7.33339C10.2273 7.24584 10.2449 7.15915 10.2792 7.07826C10.3134 6.99738 10.3637 6.92388 10.427 6.86198C10.4903 6.80007 10.5654 6.75097 10.6482 6.71747C10.7309 6.68397 10.8196 6.66673 10.9091 6.66674C11.0899 6.66674 11.2634 6.73697 11.3912 6.86199C11.5191 6.98701 11.591 7.15658 11.591 7.33339L10.9091 17.3334C10.9091 17.5102 10.8373 17.6798 10.7094 17.8048C10.5815 17.9298 10.4081 18 10.2273 18C10.0465 18 9.87305 17.9298 9.74519 17.8048C9.61732 17.6798 9.54549 17.5102 9.54549 17.3334L10.2273 7.33339ZM6.8182 7.33339C6.8182 7.15659 6.89003 6.98702 7.01789 6.862C7.14575 6.73698 7.31917 6.66674 7.5 6.66674C7.58954 6.66673 7.6782 6.68397 7.76093 6.71747C7.84365 6.75097 7.91882 6.80007 7.98213 6.86198C8.04544 6.92388 8.09567 6.99738 8.12993 7.07826C8.16419 7.15915 8.18181 7.24584 8.1818 7.33339V17.3334C8.18181 17.4209 8.16419 17.5076 8.12993 17.5885C8.09567 17.6694 8.04544 17.7429 7.98213 17.8048C7.91882 17.8667 7.84365 17.9158 7.76093 17.9493C7.6782 17.9828 7.58954 18.0001 7.5 18C7.31917 18 7.14575 17.9298 7.01789 17.8048C6.89003 17.6798 6.8182 17.5102 6.8182 17.3334V7.33339ZM4.0909 6.66667C4.18044 6.66666 4.2691 6.68389 4.35183 6.71739C4.43455 6.75089 4.50972 6.8 4.57303 6.8619C4.63635 6.92381 4.68657 6.9973 4.72083 7.07819C4.75509 7.15908 4.77272 7.24577 4.77271 7.33332L5.45459 17.3333C5.45269 17.5089 5.38002 17.6767 5.25235 17.8002C5.12469 17.9237 4.95234 17.993 4.77274 17.993C4.59315 17.993 4.4208 17.9237 4.29314 17.8002C4.16547 17.6767 4.0928 17.5089 4.0909 17.3333L3.4091 7.33339C3.4091 7.15658 3.48093 6.98701 3.60879 6.86197C3.73665 6.73694 3.91007 6.66669 4.0909 6.66667ZM13.9091 2.66772H10.9091V1.33338C10.9091 0.321965 10.5746 0 9.54549 0H5.45451C4.51062 0 4.0909 0.447042 4.0909 1.33338V2.6678H1.09093C0.487983 2.6678 0 3.11529 0 3.66826C0 4.22131 0.487983 4.6688 1.09093 4.6688H13.9091C14.512 4.6688 15 4.22131 15 3.66826C15 3.11529 14.512 2.66772 13.9091 2.66772ZM9.54549 2.66772H5.45459L5.45466 1.3333H9.54557V2.66772H9.54549Z" fill="#121212"/>
</svg>
