<svg width="15" height="20" viewBox="0 0 15 20" fill="none" xmlns="http://www.w3.org/2000/svg">
<path d="M13.8322 0H12.1015V5.827C12.1015 6.236 11.6854 6.439 11.3628 5.927L10.2201 4.107L9.07739 5.927C8.75277 6.439 8.33869 6.239 8.33869 5.827V0H2.53769C1.86401 0.00185317 1.21855 0.269435 0.742846 0.744076C0.267138 1.21872 -2.5745e-06 1.86168 0 2.532V17.475C0.00185655 18.1441 0.269816 18.7853 0.745323 19.2584C1.22083 19.7315 1.86522 19.9982 2.53769 20H13.8342C14.143 19.9987 14.4387 19.876 14.6571 19.6588C14.8754 19.4415 14.9987 19.1472 15 18.84V1.162C14.9992 0.854062 14.8759 0.558963 14.6571 0.341217C14.4382 0.123471 14.1416 0.000791958 13.8322 0V0ZM14.0503 17L3.02714 17.014C2.90484 17.0219 2.79013 17.0758 2.70631 17.1647C2.62249 17.2537 2.57585 17.3711 2.57585 17.493C2.57585 17.6149 2.62249 17.7323 2.70631 17.8213C2.79013 17.9102 2.90484 17.9641 3.02714 17.972H14.0503V18.855C14.0511 18.8815 14.0465 18.9079 14.0367 18.9325C14.0269 18.9572 14.0121 18.9795 13.9932 18.9983C13.9744 19.017 13.9519 19.0317 13.9271 19.0415C13.9024 19.0512 13.8759 19.0558 13.8492 19.055H2.53769C2.12782 19.0447 1.73822 18.8754 1.452 18.5833C1.16577 18.2913 1.00557 17.8995 1.00557 17.4915C1.00557 17.0835 1.16577 16.6917 1.452 16.3997C1.73822 16.1076 2.12782 15.9383 2.53769 15.928H13.8492C13.9026 15.928 13.9537 15.9491 13.9914 15.9866C14.0291 16.0241 14.0503 16.075 14.0503 16.128V17Z" fill="#121212"/>
</svg>
