<svg width="13" height="20" viewBox="0 0 13 20" fill="none" xmlns="http://www.w3.org/2000/svg">
<path d="M12.9525 5.58197C12.7754 4.17071 12.1184 2.85812 11.0867 1.85402C10.055 0.849924 8.708 0.212277 7.26111 0.042999C7.00489 0.014447 6.74723 9.14529e-05 6.48935 0C5.20278 0.00187313 3.94572 0.376291 2.87742 1.0758C1.80913 1.77531 0.977667 2.76844 0.488362 3.92939C-0.000941981 5.09034 -0.126067 6.36687 0.128835 7.59726C0.383737 8.82766 1.00719 9.95655 1.92023 10.8409C2.4119 11.3002 2.80475 11.8506 3.07577 12.4598C3.34679 13.069 3.49055 13.7248 3.49862 14.3889V15.1219H9.4975V14.3859C9.49971 13.7344 9.63552 13.0899 9.89691 12.4904C10.1583 11.8908 10.54 11.3484 11.0195 10.8949C11.7411 10.2157 12.2913 9.38231 12.6267 8.46037C12.9622 7.53843 13.0737 6.5531 12.9525 5.58197Z" fill="currentColor"/>
<path d="M6.49646 20C6.80664 19.9996 7.1091 19.9056 7.36234 19.7309C7.61558 19.5561 7.80719 19.3092 7.91086 19.024H5.08208C5.18575 19.3092 5.37735 19.5561 5.63059 19.7309C5.88383 19.9056 6.18629 19.9996 6.49646 20Z" fill="currentColor"/>
<path d="M3.99564 17.5612C3.99564 17.6907 4.04833 17.8148 4.14213 17.9063C4.23593 17.9978 4.36316 18.0492 4.49581 18.0492H8.49301C8.62566 18.0492 8.75289 17.9978 8.84669 17.9063C8.94049 17.8148 8.99318 17.6907 8.99318 17.5612V16.0982H3.99359L3.99564 17.5612Z" fill="currentColor"/>
</svg>
