<svg width="20" height="19" viewBox="0 0 20 19" fill="none" xmlns="http://www.w3.org/2000/svg">
<path d="M13.0155 3.89879C12.3324 2.48627 11.2003 1.35015 9.80281 0.674865C8.40533 -0.000415811 6.82458 -0.175207 5.31719 0.17887C3.80979 0.532946 2.46426 1.3951 1.49903 2.62536C0.533801 3.85563 0.00554875 5.38177 3.24862e-05 6.95602C-0.0030991 7.98416 0.220214 8.99994 0.653558 9.9287L0.0121694 13.1987C-0.0066654 13.2949 -0.00193379 13.3943 0.0259459 13.4881C0.0538255 13.5819 0.103994 13.6673 0.172016 13.7367C0.240038 13.8061 0.323818 13.8574 0.415948 13.886C0.508078 13.9147 0.605719 13.9197 0.700239 13.9008L3.95293 13.2463C4.38691 13.4559 4.84168 13.6177 5.30946 13.7289C5.06716 12.5531 5.08304 11.3374 5.35598 10.1687C5.62893 8.99992 6.15219 7.90693 6.88838 6.96781C7.62457 6.0287 8.55551 5.26665 9.61468 4.73612C10.6739 4.20558 11.8351 3.91966 13.0155 3.89879Z" fill="currentColor"/>
<path d="M19.3463 15.0166C19.4578 14.7771 19.5557 14.5312 19.6395 14.2803H19.618C19.957 13.2595 20.0585 12.1725 19.9147 11.1049C19.7708 10.0374 19.3854 9.01834 18.7889 8.12804C18.1923 7.23774 17.4009 6.50046 16.4769 5.97421C15.5528 5.44797 14.5213 5.14711 13.4637 5.09532C12.5524 5.04932 11.6413 5.18942 10.7841 5.50735C9.92687 5.82529 9.14087 6.31463 8.47242 6.94654C7.80397 7.57844 7.26658 8.34012 6.89194 9.18668C6.51731 10.0332 6.31301 10.9476 6.29107 11.8757C6.26913 12.8039 6.43001 13.7271 6.76421 14.5911C7.09842 15.455 7.59918 16.2421 8.23701 16.9059C8.87484 17.5698 9.63681 18.097 10.478 18.4565C11.3192 18.816 12.2226 19.0006 13.135 18.9992C14.1425 19.0011 15.1377 18.7739 16.0479 18.3342C19.6105 19.0505 19.3323 18.9992 19.4145 18.9992C19.5011 18.9991 19.5867 18.9794 19.665 18.9416C19.7433 18.9038 19.8124 18.8488 19.8673 18.7806C19.9222 18.7123 19.9616 18.6326 19.9826 18.547C20.0035 18.4614 20.0056 18.3722 19.9886 18.2857L19.3463 15.0166Z" fill="currentColor"/>
</svg>
