<svg width="32" height="32" viewBox="0 0 32 32" fill="none" xmlns="http://www.w3.org/2000/svg">
<path d="M16 30C23.7275 30 30 23.7275 30 16C30 8.27254 23.7275 2 16 2C8.27254 2 2 8.27254 2 16C2 23.7275 8.27254 30 16 30ZM16 27.6667C9.54902 27.6667 4.33333 22.4509 4.33333 16C4.33333 9.54902 9.54902 4.33333 16 4.33333C22.4509 4.33333 27.6667 9.54902 27.6667 16C27.6667 22.4509 22.4509 27.6667 16 27.6667Z" fill="currentColor"/>
<path d="M14.4901 22.5196C14.943 22.5196 15.3273 22.3 15.6019 21.8745L21.8744 12.0059C22.0254 11.7314 22.2038 11.4294 22.2038 11.1274C22.2038 10.5098 21.6548 10.1118 21.0783 10.1118C20.7351 10.1118 20.392 10.3314 20.1312 10.7294L14.4351 19.8706L11.7312 16.3706C11.4018 15.9314 11.0999 15.8216 10.7156 15.8216C10.1254 15.8216 9.65869 16.3019 9.65869 16.9059C9.65869 17.2078 9.78223 17.4961 9.97437 17.7569L13.3234 21.8745C13.6665 22.3274 14.0371 22.5196 14.4901 22.5196Z" fill="currentColor"/>
</svg>
