<svg width="32" height="32" viewBox="0 0 32 32" fill="none" xmlns="http://www.w3.org/2000/svg">
<path d="M30 16C30 23.7138 23.7275 30 16 30C8.28627 30 2 23.7138 2 16C2 8.27254 8.28627 2 16 2C23.7275 2 30 8.27254 30 16ZM20.2686 10.551L14.4078 19.9666L11.6215 16.3706C11.2784 15.9177 10.9765 15.7941 10.5784 15.7941C9.96078 15.7941 9.48039 16.3019 9.48039 16.9196C9.48039 17.2353 9.60392 17.5373 9.8098 17.8118L13.2549 22.0392C13.6118 22.5196 13.996 22.7117 14.4627 22.7117C14.9295 22.7117 15.3275 22.4921 15.6157 22.0392L22.0667 11.8824C22.2313 11.5941 22.4098 11.2784 22.4098 10.9765C22.4098 10.3314 21.8471 9.9196 21.2431 9.9196C20.8863 9.9196 20.5295 10.1392 20.2686 10.551Z" fill="currentColor"/>
</svg>
