<svg width="32" height="32" viewBox="0 0 32 32" fill="currentColor" xmlns="http://www.w3.org/2000/svg">
<path d="M16.0073 2C15.6293 2 15.2949 2.14538 15.0042 2.43614L6.70306 10.4029C6.48499 10.621 6.32507 10.9263 6.32507 11.3479C6.32507 12.1038 6.89205 12.6854 7.64802 12.6854C7.96785 12.6854 8.31676 12.5981 8.62206 12.2928L16.0073 5.0675L23.378 12.2928C23.6979 12.5836 24.0322 12.6854 24.352 12.6854C25.108 12.6854 25.675 12.1038 25.675 11.3479C25.675 10.9263 25.5296 10.621 25.297 10.4029L16.9959 2.43614C16.7051 2.14538 16.3708 2 16.0073 2ZM16.0073 30C16.3708 30 16.7051 29.8401 16.9959 29.5638L25.297 21.5971C25.5296 21.3645 25.675 21.0737 25.675 20.6375C25.675 19.8816 25.108 19.3146 24.352 19.3146C24.0322 19.3146 23.6979 19.4164 23.378 19.7071L16.0073 26.9325L8.62206 19.7071C8.31676 19.4018 7.96785 19.3146 7.64802 19.3146C6.89205 19.3146 6.32507 19.8816 6.32507 20.6375C6.32507 21.0737 6.48499 21.3645 6.70306 21.5971L15.0042 29.5638C15.2949 29.8401 15.6293 30 16.0073 30Z" fill="currentColor"/>
</svg>
