<svg width="20" height="20" viewBox="0 0 20 20" fill="none" xmlns="http://www.w3.org/2000/svg">
<path fill-rule="evenodd" clip-rule="evenodd" d="M19.6339 0.366117C19.1457 -0.122039 18.3543 -0.122039 17.8661 0.366117L10 8.23223L2.13388 0.366117C1.64573 -0.122039 0.854272 -0.122039 0.366117 0.366117C-0.122039 0.854272 -0.122039 1.64573 0.366117 2.13388L8.23223 10L0.366117 17.8661C-0.122039 18.3543 -0.122039 19.1457 0.366117 19.6339C0.854272 20.122 1.64573 20.122 2.13388 19.6339L10 11.7678L17.8661 19.6339C18.3543 20.122 19.1457 20.122 19.6339 19.6339C20.122 19.1457 20.122 18.3543 19.6339 17.8661L11.7678 10L19.6339 2.13388C20.122 1.64573 20.122 0.854272 19.6339 0.366117Z" fill="currentColor"/>
</svg>
