<svg width="32" height="32" viewBox="0 0 32 32" fill="none" xmlns="http://www.w3.org/2000/svg">
<path d="M5.474 28.5H26.5156C28.6895 28.5 30 27.0065 30 25.1141C30 24.5004 29.8232 23.8662 29.4799 23.2832L18.9644 5.19804C18.3091 4.0626 17.1545 3.5 16 3.5C14.835 3.5 13.6909 4.0626 13.0356 5.19804L2.52006 23.2832C2.16642 23.8764 2 24.5004 2 25.1141C2 27.0065 3.31055 28.5 5.474 28.5ZM5.4948 26.7304C4.46508 26.7304 3.85141 25.9632 3.85141 25.1039C3.85141 24.797 3.93462 24.4493 4.11144 24.1219L14.6062 6.05728C14.9182 5.51514 15.4696 5.30033 16 5.30033C16.5304 5.30033 17.0713 5.51514 17.373 6.05728L27.8782 24.1321C28.055 24.4595 28.1382 24.797 28.1382 25.1039C28.1382 25.9632 27.5141 26.7304 26.4844 26.7304H5.4948Z" fill="currentColor"/>
<path d="M15.9897 19.6722C16.541 19.6722 16.8738 19.3552 16.8842 18.7516L17.0506 11.7242C17.061 11.1309 16.6034 10.6911 15.9793 10.6911C15.3448 10.6911 14.9079 11.1207 14.9183 11.714L15.0744 18.7516C15.0847 19.3449 15.4072 19.6722 15.9897 19.6722ZM15.9897 23.8355C16.6969 23.8355 17.3106 23.2832 17.3106 22.5875C17.3106 21.8817 16.7074 21.3294 15.9897 21.3294C15.272 21.3294 14.6687 21.892 14.6687 22.5875C14.6687 23.2729 15.2824 23.8355 15.9897 23.8355Z" fill="currentColor"/>
</svg>
