<svg width="32" height="32" viewBox="0 0 32 32" fill="none" xmlns="http://www.w3.org/2000/svg">
<path d="M30 16.0054C30 23.6584 23.6584 30 15.9947 30C8.34165 30 2 23.6584 2 16.0054C2 8.34165 8.3309 2 15.9839 2C23.6476 2 30 8.34165 30 16.0054ZM14.5866 21.6914C14.5866 22.433 15.2422 23.0457 15.9947 23.0457C16.7578 23.0457 17.4027 22.4438 17.4027 21.6914C17.4027 20.9282 16.7686 20.3263 15.9947 20.3263C15.2315 20.3263 14.5866 20.9389 14.5866 21.6914ZM14.8553 9.9862L15.0165 17.5532C15.0273 18.1981 15.3819 18.5635 15.9947 18.5635C16.5966 18.5635 16.9405 18.2088 16.9513 17.5532L17.134 9.99693C17.1447 9.35202 16.6503 8.87908 15.9839 8.87908C15.3068 8.87908 14.8446 9.34129 14.8553 9.9862Z" fill="currentColor"/>
</svg>
