<svg width="32" height="32" viewBox="0 0 32 32" fill="none" xmlns="http://www.w3.org/2000/svg">
<path d="M15.9947 30C23.6584 30 30 23.6584 30 16.0054C30 8.34165 23.6476 2 15.9839 2C8.3309 2 2 8.34165 2 16.0054C2 23.6584 8.34165 30 15.9947 30ZM15.9947 28.0008C9.35202 28.0008 4.00999 22.648 4.00999 16.0054C4.00999 9.35202 9.34129 4.00999 15.9839 4.00999C22.6372 4.00999 27.99 9.35202 27.99 16.0054C27.99 22.648 22.648 28.0008 15.9947 28.0008Z" fill="currentColor"/>
<path d="M15.9732 18.4991C16.5536 18.4991 16.8975 18.1551 16.9083 17.5209L17.0803 10.1366C17.091 9.51327 16.6074 9.05106 15.9625 9.05106C15.3068 9.05106 14.8553 9.50247 14.8661 10.1259L15.0273 17.5209C15.038 18.1444 15.382 18.4991 15.9732 18.4991ZM15.9732 22.8738C16.7148 22.8738 17.3383 22.2826 17.3383 21.5517C17.3383 20.81 16.7255 20.2296 15.9732 20.2296C15.2315 20.2296 14.6189 20.8208 14.6189 21.5517C14.6189 22.2718 15.2423 22.8738 15.9732 22.8738Z" fill="currentColor"/>
</svg>
