<svg width="32" height="32" viewBox="0 0 32 32" fill="none" xmlns="http://www.w3.org/2000/svg">
<path d="M18.9644 5.19804L29.4799 23.2832C29.8232 23.8662 30 24.5004 30 25.1141C30 27.0065 28.6895 28.5 26.5156 28.5H5.474C3.31055 28.5 2 27.0065 2 25.1141C2 24.5004 2.16642 23.8764 2.52006 23.2832L13.0356 5.19804C13.6909 4.0626 14.835 3.5 16 3.5C17.1545 3.5 18.3091 4.0626 18.9644 5.19804ZM14.6375 22.7206C14.6375 23.4264 15.2615 24.0094 16 24.0094C16.7281 24.0094 17.3625 23.4366 17.3625 22.7206C17.3625 21.9943 16.7385 21.4214 16 21.4214C15.2511 21.4214 14.6375 22.0045 14.6375 22.7206ZM14.8871 11.581L15.0535 18.7824C15.0639 19.396 15.3967 19.7439 16 19.7439C16.572 19.7439 16.9153 19.4063 16.9257 18.7824L17.0921 11.5913C17.1025 10.9775 16.6345 10.5274 15.9896 10.5274C15.3343 10.5274 14.8767 10.9672 14.8871 11.581Z" fill="currentColor"/>
</svg>
