<svg width="20" height="18" viewBox="0 0 20 18" fill="none" xmlns="http://www.w3.org/2000/svg">
<g clip-path="url(#clip0_2_165)">
<path d="M9.8479 5.83248L12.7109 8.69547L12.7245 8.5455C12.7245 7.04128 11.5021 5.81885 9.99787 5.81885L9.8479 5.83248Z" fill="currentColor"/>
<path d="M9.99774 4.00117C12.5063 4.00117 14.5422 6.03708 14.5422 8.5456C14.5422 9.13183 14.424 9.6908 14.2195 10.2043L16.878 12.8628C18.2504 11.7176 19.332 10.2361 20 8.5456C18.4231 4.55561 14.5467 1.72897 9.99778 1.72897C8.72533 1.72897 7.50746 1.95618 6.37589 2.36517L8.33908 4.32381C8.85255 4.12387 9.41151 4.00117 9.99774 4.00117ZM0.90887 1.52443L2.98113 3.59668L3.39468 4.01024C1.89502 5.1827 0.70893 6.74145 0 8.54556C1.57238 12.5355 5.45331 15.3622 9.99774 15.3622C11.4065 15.3622 12.7517 15.0895 13.9832 14.5942L14.3695 14.9805L17.0189 17.6344L18.1777 16.4801L2.0677 0.365601L0.90887 1.52443ZM5.93503 6.54603L7.33925 7.95026C7.29836 8.14568 7.27109 8.34106 7.27109 8.54556C7.27109 10.0498 8.49352 11.2722 9.99774 11.2722C10.2022 11.2722 10.3977 11.2449 10.5885 11.204L11.9928 12.6083C11.3883 12.9082 10.7158 13.09 9.99774 13.09C7.48922 13.09 5.45331 11.0541 5.45331 8.54556C5.45331 7.82756 5.6351 7.15497 5.93503 6.54603Z" fill="currentColor"/>
</g>
</svg>
