<svg width="20" height="14" viewBox="0 0 20 14" fill="none" xmlns="http://www.w3.org/2000/svg">
<path d="M9.9992 4.19987C9.45979 4.19987 8.9325 4.36407 8.484 4.67173C8.0355 4.97938 7.68594 5.41666 7.47952 5.92827C7.2731 6.43988 7.2191 7.00284 7.32433 7.54596C7.42956 8.08908 7.68931 8.58796 8.07073 8.97953C8.45214 9.3711 8.93809 9.63776 9.46713 9.74579C9.99617 9.85383 10.5445 9.79839 11.0429 9.58647C11.5412 9.37456 11.9672 9.0157 12.2668 8.55526C12.5665 8.09482 12.7265 7.55349 12.7265 6.99973C12.7265 6.25716 12.4391 5.54501 11.9277 5.01993C11.4162 4.49486 10.7225 4.19987 9.9992 4.19987Z" fill="currentColor"/>
<path d="M10 0C7.84132 0.0012242 5.73299 0.669543 3.94943 1.91798C2.16587 3.16641 0.789683 4.93713 0 6.99966C0.788525 9.06306 2.16441 10.8346 3.94821 12.0834C5.73202 13.3321 7.84096 14 10 14C12.159 14 14.268 13.3321 16.0518 12.0834C17.8356 10.8346 19.2115 9.06306 20 6.99966C19.2108 4.93676 17.8348 3.16569 16.0511 1.91717C14.2674 0.668659 12.1588 0.000585832 10 0ZM10 11.6661C9.10099 11.6661 8.22218 11.3924 7.47468 10.8797C6.72718 10.3669 6.14458 9.63811 5.80055 8.78543C5.45651 7.93275 5.3665 6.99449 5.54188 6.08929C5.71727 5.18409 6.15019 4.3526 6.78588 3.69999C7.42157 3.04737 8.23149 2.60294 9.11323 2.42288C9.99496 2.24283 10.9089 2.33524 11.7395 2.68843C12.57 3.04162 13.2799 3.63973 13.7794 4.40712C14.2789 5.17452 14.5455 6.07673 14.5455 6.99966C14.5455 8.23728 14.0666 9.42421 13.2141 10.2993C12.3617 11.1745 11.2055 11.6661 10 11.6661Z" fill="currentColor"/>
</svg>
