<svg width="20" height="16" viewBox="0 0 20 16" fill="none" xmlns="http://www.w3.org/2000/svg">
<path fill-rule="evenodd" clip-rule="evenodd" d="M2.72727 0C1.22104 0 0 1.19391 0 2.66667V6.22222C0 7.69498 1.22104 8.88889 2.72727 8.88889H17.2727C18.779 8.88889 20 7.69498 20 6.22222V2.66667C20 1.19391 18.779 0 17.2727 0H2.72727ZM17.2727 1.77778H2.72727C2.2252 1.77778 1.81818 2.17575 1.81818 2.66667V6.22222C1.81818 6.71314 2.2252 7.11111 2.72727 7.11111H17.2727C17.7748 7.11111 18.1818 6.71314 18.1818 6.22222V2.66667C18.1818 2.17575 17.7748 1.77778 17.2727 1.77778Z" fill="#121212"/>
<path d="M5.45455 15.1111C5.45455 14.6202 5.86156 14.2222 6.36364 14.2222H13.6364C14.1384 14.2222 14.5455 14.6202 14.5455 15.1111C14.5455 15.602 14.1384 16 13.6364 16H6.36364C5.86156 16 5.45455 15.602 5.45455 15.1111Z" fill="#121212"/>
<path d="M3.63636 10.6667C3.13429 10.6667 2.72727 11.0646 2.72727 11.5556C2.72727 12.0465 3.13429 12.4444 3.63636 12.4444H16.3636C16.8657 12.4444 17.2727 12.0465 17.2727 11.5556C17.2727 11.0646 16.8657 10.6667 16.3636 10.6667H3.63636Z" fill="#121212"/>
</svg>
