<svg width="20" height="18" viewBox="0 0 20 18" fill="none" xmlns="http://www.w3.org/2000/svg">
<path d="M18.4119 1.76169C17.9038 1.20152 17.2853 0.755345 16.5962 0.451939C15.9072 0.148533 15.163 -0.00536264 14.4115 0.000179537C13.2718 -0.00479287 12.1643 0.381901 11.2702 1.09694C10.7852 1.48053 10.3573 1.9326 9.99938 2.43929C9.64153 1.93256 9.21356 1.48049 8.72861 1.09694C7.8359 0.382911 6.73028 -0.00372922 5.59233 0.000179537C4.84005 -0.00600348 4.09485 0.147579 3.4049 0.451003C2.71494 0.754426 2.09558 1.20094 1.58684 1.76169C0.540317 2.94837 -0.0259315 4.49042 0.000912558 6.0806C0.0470412 7.91335 0.752356 9.66613 1.98459 11.0103C3.51162 12.7144 5.17198 14.2911 6.94952 15.7252C7.63701 16.3179 8.41727 16.9904 9.22675 17.7066C9.44072 17.8957 9.71523 18 9.99938 18C10.2835 18 10.558 17.8957 10.772 17.7066C11.5815 16.9904 12.3618 16.3179 13.0505 15.7239C14.8281 14.2899 16.4885 12.7131 18.0154 11.009C19.2478 9.66491 19.9531 7.91209 19.9991 6.07932C20.0254 4.48938 19.4587 2.94778 18.4119 1.76169Z" fill="currentColor"/>
</svg>
