<svg width="20" height="20" viewBox="0 0 20 20" fill="none" xmlns="http://www.w3.org/2000/svg">
<path d="M19.4587 8.69855L11.3003 0.537504C10.9552 0.193295 10.4878 0 10.0005 0C9.51325 0 9.04584 0.193295 8.7008 0.537504L0.544418 8.69155L0.53642 8.69855C0.284537 8.95145 0.111626 9.27217 0.0387576 9.62164C-0.0341111 9.97111 -0.00379155 10.3342 0.126022 10.6668C0.255835 10.9993 0.479537 11.2869 0.769869 11.4945C1.0602 11.7021 1.40463 11.8207 1.76118 11.836H1.81817H2.1431V17.8367C2.14231 18.1207 2.19758 18.402 2.30573 18.6646C2.41387 18.9271 2.57278 19.1658 2.77333 19.3667C2.97387 19.5677 3.21212 19.7271 3.47439 19.8358C3.73666 19.9445 4.01779 20.0003 4.30167 20H7.48904C7.64442 20 7.79345 19.9383 7.90332 19.8283C8.0132 19.7184 8.07492 19.5694 8.07492 19.4139V14.7063C8.07519 14.4457 8.17882 14.1958 8.36307 14.0114C8.54733 13.8271 8.79715 13.7235 9.05773 13.7232H10.9404C11.2009 13.7235 11.4508 13.8271 11.635 14.0114C11.8193 14.1958 11.9229 14.4457 11.9232 14.7063V19.4139C11.9232 19.5694 11.9849 19.7184 12.0948 19.8283C12.2046 19.9383 12.3537 20 12.509 20H15.6994C16.2707 19.9995 16.8184 19.7722 17.2223 19.3681C17.6263 18.9641 17.8534 18.4162 17.854 17.8447V11.844H18.1539C18.5187 11.845 18.8756 11.7377 19.1792 11.5355C19.4829 11.3333 19.7196 11.0454 19.8594 10.7084C19.9993 10.3714 20.0358 10.0004 19.9644 9.64254C19.8931 9.28469 19.717 8.95613 19.4587 8.69855Z" fill="currentColor"/>
</svg>
