<svg width="32" height="32" viewBox="0 0 32 32" fill="currentColor" xmlns="http://www.w3.org/2000/svg">
<path d="M30 16C30 23.6451 23.6588 30 16 30C8.35491 30 2 23.6451 2 16C2 8.34118 8.34118 2 15.9863 2C23.6451 2 30 8.34118 30 16ZM13.7627 13.4608C13.1863 13.4608 12.7334 13.9137 12.7334 14.4627C12.7334 15.053 13.1863 15.4785 13.7627 15.4785H15.2726V21.9294H13.5294C12.9392 21.9294 12.4863 22.3823 12.4863 22.9314C12.4863 23.5216 12.9392 23.9471 13.5294 23.9471H19.2804C19.8706 23.9471 20.3236 23.5216 20.3236 22.9314C20.3236 22.3823 19.8706 21.9294 19.2804 21.9294H17.5373V14.751C17.5373 13.9823 17.1529 13.4608 16.4255 13.4608H13.7627ZM14.0235 9.26078C14.0235 10.3039 14.8471 11.1274 15.8765 11.1274C16.9059 11.1274 17.7157 10.3039 17.7157 9.26078C17.7157 8.21764 16.9059 7.39411 15.8765 7.39411C14.8471 7.39411 14.0235 8.21764 14.0235 9.26078Z" fill="currentColor"/>
</svg>
