<svg width="32" height="32" viewBox="0 0 32 32" fill="currentColor" xmlns="http://www.w3.org/2000/svg">
<path d="M16 30C23.6588 30 30 23.6451 30 16C30 8.34118 23.6451 2 15.9863 2C8.34118 2 2 8.34118 2 16C2 23.6451 8.35491 30 16 30ZM16 27.6667C9.52157 27.6667 4.34706 22.4784 4.34706 16C4.34706 9.52157 9.50785 4.33333 15.9863 4.33333C22.4647 4.33333 27.6667 9.52157 27.6667 16C27.6667 22.4784 22.4784 27.6667 16 27.6667Z" fill="currentColor"/>
<path d="M13.5981 23.6863H19.1844C19.7471 23.6863 20.1864 23.2746 20.1864 22.7117C20.1864 22.1765 19.7471 21.751 19.1844 21.751H17.4825V14.7647C17.4825 14.0235 17.1119 13.5294 16.4118 13.5294H13.8315C13.2687 13.5294 12.8295 13.9549 12.8295 14.4902C12.8295 15.053 13.2687 15.4647 13.8315 15.4647H15.3001V21.751H13.5981C13.0354 21.751 12.5962 22.1765 12.5962 22.7117C12.5962 23.2746 13.0354 23.6863 13.5981 23.6863ZM15.8766 11.2509C16.8785 11.2509 17.6609 10.4549 17.6609 9.45295C17.6609 8.45099 16.8785 7.65491 15.8766 7.65491C14.8884 7.65491 14.0922 8.45099 14.0922 9.45295C14.0922 10.4549 14.8884 11.2509 15.8766 11.2509Z" fill="currentColor"/>
</svg>
