<svg width="15" height="20" viewBox="0 0 15 20" fill="none" xmlns="http://www.w3.org/2000/svg"><path d="M13.125 6.667h-.938V4.762C12.188 2.133 10.088 0 7.5 0 4.912 0 2.812 2.133 2.812 4.762v1.905h-.937C.844 6.667 0 7.524 0 8.57v9.524C0 19.143.844 20 1.875 20h11.25C14.156 20 15 19.143 15 18.095V8.571c0-1.047-.844-1.904-1.875-1.904ZM7.5 15.238c-1.031 0-1.875-.857-1.875-1.905 0-1.047.844-1.904 1.875-1.904 1.031 0 1.875.857 1.875 1.904 0 1.048-.844 1.905-1.875 1.905Zm2.906-8.571H4.594V4.762c0-1.629 1.303-2.952 2.906-2.952 1.603 0 2.906 1.323 2.906 2.952v1.905Z" fill="currentColor"/></svg>
