<svg width="19" height="20" viewBox="0 0 19 20" fill="none" xmlns="http://www.w3.org/2000/svg">
<path d="M18.7109 18.2161L14.0267 13.2592C15.1872 11.8503 15.8403 10.0809 15.8781 8.2434C15.9159 6.40592 15.3362 4.6103 14.2347 3.15322C13.1332 1.69615 11.5759 0.664815 9.81998 0.229629C8.06411 -0.205556 6.21479 -0.0185518 4.57758 0.759744C2.94036 1.53804 1.61323 2.86105 0.815454 4.51018C0.0176819 6.15931 -0.202988 8.03587 0.189905 9.8298C0.582798 11.6237 1.56574 13.2277 2.97633 14.3766C4.38691 15.5256 6.14073 16.1507 7.94799 16.1489C9.57724 16.1533 11.1676 15.6425 12.4988 14.6874L17.2169 19.6765C17.4073 19.878 17.6686 19.9943 17.9434 19.9998C18.0794 20.0025 18.2147 19.978 18.3414 19.9276C18.4681 19.8772 18.5838 19.8019 18.6819 19.706C18.78 19.6101 18.8586 19.4955 18.9131 19.3687C18.9677 19.2419 18.9971 19.1055 18.9998 18.9671C19.0025 18.8288 18.9784 18.6913 18.9288 18.5624C18.8792 18.4335 18.8052 18.3159 18.7109 18.2161ZM7.9469 2.10058C9.10836 2.10036 10.2438 2.45048 11.2095 3.10664C12.1753 3.7628 12.928 4.69552 13.3723 5.7868C13.8167 6.87807 13.9328 8.07887 13.706 9.23726C13.4791 10.3957 12.9195 11.4596 12.0979 12.2945C11.2763 13.1294 10.2297 13.6977 9.09043 13.9275C7.95116 14.1573 6.77046 14.0384 5.6977 13.5857C4.62494 13.1329 3.70832 12.3668 3.06381 11.3842C2.4193 10.4016 2.07586 9.24669 2.07694 8.06555C2.08012 6.48376 2.69972 4.96776 3.79999 3.84968C4.90025 2.7316 6.39147 2.10263 7.9469 2.10058Z" fill="currentColor"/>
</svg>
