<svg width="32" height="32" viewBox="0 0 32 32" fill="currentColor" xmlns="http://www.w3.org/2000/svg">
<path d="M2.13483 13.3249C2.13483 19.5692 7.21542 24.6498 13.4598 24.6498C15.9291 24.6498 18.1855 23.8551 20.0447 22.5211L27.0268 29.5175C27.3533 29.8439 27.7791 30 28.2332 30C29.1982 30 29.8652 29.2762 29.8652 28.3254C29.8652 27.8713 29.695 27.4597 29.3969 27.1617L22.4572 20.1794C23.919 18.2778 24.7846 15.9078 24.7846 13.3249C24.7846 7.08059 19.7041 2 13.4598 2C7.21542 2 2.13483 7.08059 2.13483 13.3249ZM4.56159 13.3249C4.56159 8.4146 8.54943 4.42677 13.4598 4.42677C18.37 4.42677 22.3578 8.4146 22.3578 13.3249C22.3578 18.2352 18.37 22.223 13.4598 22.223C8.54943 22.223 4.56159 18.2352 4.56159 13.3249Z" fill="currentColor" />
</svg>
