<svg width="32" height="32" viewBox="0 0 32 32" fill="currentColor" xmlns="http://www.w3.org/2000/svg">
<path d="M23.9291 21.0329C16.2399 21.0329 11.2068 16.1054 11.2068 8.44787C11.2068 6.70551 11.564 4.60801 12.0885 3.35394C12.2113 3.07649 12.2335 2.88783 12.2335 2.76575C12.2335 2.38843 11.9546 2 11.4524 2C11.2961 2 11.0171 2.03329 10.7493 2.13317C5.51535 4.24177 2 9.84623 2 15.7725C2 23.9961 8.34994 30 16.6194 30C22.6904 30 28.1029 26.3266 29.8772 21.6877C29.9777 21.4102 30 21.1217 30 20.9996C30 20.5113 29.6094 20.1784 29.2077 20.1784C29.0514 20.1784 28.9175 20.2005 28.6832 20.2782C27.5783 20.6445 25.7593 21.0329 23.9291 21.0329Z" fill="currentColor"/>
</svg>
