<svg width="32" height="32" viewBox="0 0 32 32" fill="currentColor" xmlns="http://www.w3.org/2000/svg">
<path d="M23.9813 20.9884C16.1091 20.9884 11.2243 16.2819 11.2243 8.70177C11.2243 6.58714 11.5732 4.7436 12.1184 3.64833C12.2928 3.27963 12.3364 3.09527 12.3364 2.8567C12.3364 2.45546 11.9657 2 11.4533 2C11.3442 2 11.0934 2.03253 10.7445 2.16266C5.60904 4.21224 2 9.62356 2 15.4469C2 23.8621 8.14953 30 16.6106 30C22.5966 30 27.5904 26.8009 29.8364 21.6824C29.9782 21.357 30 21.0968 30 20.9667C30 20.4461 29.5856 20.11 29.1932 20.11C28.986 20.11 28.8333 20.1317 28.5499 20.2401C27.4704 20.6847 25.6714 20.9884 23.9813 20.9884ZM3.88629 15.371C3.88629 10.8489 6.32866 6.5546 10.1666 4.32068C9.6869 5.66537 9.42522 7.22695 9.42522 8.85359C9.42522 17.5399 14.8007 22.7451 23.7305 22.7451C25.2134 22.7451 26.5327 22.5608 27.6994 22.1596C25.5187 25.8574 21.31 28.1239 16.6869 28.1239C9.28349 28.1239 3.88629 22.7559 3.88629 15.371Z" fill="currentColor"/>
</svg>
