<svg width="20" height="20" viewBox="0 0 20 20" fill="none" xmlns="http://www.w3.org/2000/svg">
<path d="M19.5119 11.3958C19.4107 11.3722 19.3054 11.3715 19.2039 11.3938C19.1023 11.416 19.0069 11.4606 18.9245 11.5243C18.2504 12.101 17.48 12.5533 16.6489 12.8601C15.8238 13.1737 14.948 13.3306 14.066 13.323C13.078 13.3247 12.0995 13.1305 11.1864 12.7516C10.2733 12.3728 9.44366 11.8166 8.74496 11.1151C8.04626 10.4135 7.49227 9.5804 7.11472 8.6634C6.73718 7.7464 6.54352 6.76358 6.54483 5.77127C6.54865 4.92393 6.68791 4.08272 6.95729 3.27974C7.22689 2.47229 7.64306 1.72199 8.18474 1.0668C8.29234 0.931041 8.34198 0.75798 8.32278 0.585531C8.30359 0.413081 8.21712 0.255304 8.08234 0.146765C7.99999 0.0830166 7.90459 0.0384173 7.80301 0.016183C7.70143 -0.00605126 7.59621 -0.00536635 7.49493 0.0181884C5.34241 0.61275 3.43995 1.89255 2.07311 3.66547C1.15915 4.86953 0.524416 6.2634 0.215238 7.74532C-0.093941 9.22725 -0.0697561 10.7598 0.286027 12.2311C0.64181 13.7025 1.32021 15.0754 2.2717 16.2498C3.2232 17.4242 4.42377 18.3703 5.78577 19.0191C7.14777 19.6679 8.63683 20.003 10.1442 20C11.6516 19.9969 13.1393 19.6558 14.4987 19.0015C15.8581 18.3473 17.0549 17.3963 18.0017 16.2181C18.9485 15.04 19.6214 13.6643 19.9713 12.1915C19.9972 12.109 20.0057 12.0219 19.9962 11.9359C19.9868 11.8499 19.9596 11.7668 19.9163 11.6919C19.8731 11.617 19.8148 11.552 19.7452 11.501C19.6756 11.4501 19.5961 11.4142 19.5119 11.3958Z" fill="#121212"/>
</svg>
