<svg width="20" height="20" viewBox="0 0 20 20" fill="none" xmlns="http://www.w3.org/2000/svg">
<path d="M12.3539 3.34339L1.34751 14.3587C1.2921 14.4144 1.25266 14.484 1.23332 14.5601L0.0143554 19.4614C-0.00261471 19.5253 -0.00456774 19.5923 0.0086492 19.6571C0.0218661 19.722 0.0498943 19.7828 0.0905388 19.835C0.131183 19.8871 0.183341 19.9292 0.242927 19.9578C0.302513 19.9864 0.367911 20.0009 0.433998 20C0.469126 20 0.504121 19.9956 0.538195 19.9871L5.43546 18.7657C5.51175 18.7468 5.58138 18.7073 5.63671 18.6514L16.6445 7.6361L12.3539 3.34339Z" fill="#121212"/>
<path d="M19.3723 1.84048L18.1476 0.614812C17.735 0.220204 17.1861 0 16.6154 0C16.0446 0 15.4958 0.220204 15.0831 0.614812L13.583 2.11619L17.865 6.40176L19.3652 4.90038C19.5664 4.69901 19.726 4.45994 19.835 4.19681C19.9439 3.93369 20 3.65167 20 3.36686C20 3.08205 19.9439 2.80003 19.835 2.53691C19.726 2.27378 19.5664 2.03471 19.3652 1.83334L19.3723 1.84048Z" fill="#121212"/>
</svg>
