<svg width="32" height="32" viewBox="0 0 32 32" fill="none" xmlns="http://www.w3.org/2000/svg">
<path d="M26 2C28.2091 2 30 3.79086 30 6V26C30 28.14 28.3194 29.8879 26.2061 29.9951L26 30H6L5.79395 29.9951C3.7488 29.8913 2.10865 28.2512 2.00488 26.2061L2 26V6C2 3.79086 3.79086 2 6 2H26ZM9.12109 25L7.12109 27H24.8789L22.8789 25H9.12109ZM5 24.8789L7 22.8789V9.12109L5 7.12109V24.8789ZM25 9.12109V22.8789L27 24.8789V7.12109L25 9.12109ZM14.1211 20L12.1211 22H19.8789L17.8789 20H14.1211ZM10 19.8789L12 17.8789V14.1211L10 12.1211V19.8789ZM20 14.1211V17.8789L22 19.8789V12.1211L20 14.1211ZM14.1211 12H17.8789L19.8789 10H12.1211L14.1211 12ZM9.12109 7H22.8789L24.8789 5H7.12109L9.12109 7Z" fill="currentColor"/>
</svg>
