<svg width="17" height="20" viewBox="0 0 17 20" fill="none" xmlns="http://www.w3.org/2000/svg">
<path d="M15.9923 8.19143C16.3001 8.38078 16.5544 8.64665 16.7309 8.96354C16.9073 9.28043 17 9.6377 17 10.0011C17 10.3644 16.9073 10.7217 16.7309 11.0386C16.5544 11.3555 16.3001 11.6213 15.9923 11.8107L3.20057 19.6895C2.88166 19.8856 2.51666 19.9927 2.1431 19.9996C1.76953 20.0066 1.40086 19.9132 1.07498 19.729C0.7491 19.5449 0.477757 19.2766 0.288834 18.9518C0.0999107 18.627 0.00022316 18.2574 1.52588e-05 17.8809V2.11906C0.00022316 1.74259 0.0999107 1.37296 0.288834 1.04817C0.477757 0.723367 0.7491 0.45511 1.07498 0.270961C1.40086 0.0868124 1.76953 -0.00658684 2.1431 0.000361211C2.51666 0.00730926 2.88166 0.114354 3.20057 0.310495L15.9923 8.19143Z" fill="#121212"/>
</svg>
