<svg width="32" height="32" viewBox="0 0 32 32" fill="none" xmlns="http://www.w3.org/2000/svg">
<path d="M16 30C23.7275 30 30 23.7275 30 16C30 8.27254 23.7275 2 16 2C8.27254 2 2 8.27254 2 16C2 23.7275 8.27254 30 16 30ZM16 27.6667C9.54902 27.6667 4.33333 22.4509 4.33333 16C4.33333 9.54902 9.54902 4.33333 16 4.33333C22.4509 4.33333 27.6667 9.54902 27.6667 16C27.6667 22.4509 22.4509 27.6667 16 27.6667Z" fill="currentColor"/>
<path d="M15.7118 18.8412C16.398 18.8412 16.8235 18.402 16.8235 17.8667C16.8235 17.8118 16.8235 17.7432 16.8235 17.702C16.8235 16.9333 17.2627 16.4392 18.2235 15.8079C19.5549 14.9295 20.5019 14.1333 20.5019 12.4863C20.5019 10.2078 18.4706 8.97255 16.1373 8.97255C13.7764 8.97255 12.2254 10.098 11.8549 11.3607C11.7862 11.5803 11.7451 11.8 11.7451 12.0334C11.7451 12.651 12.2254 12.9804 12.6784 12.9804C13.1451 12.9804 13.447 12.7608 13.6941 12.4314L13.9412 12.102C14.4215 11.3059 15.1352 10.8392 16.0549 10.8392C17.3039 10.8392 18.1137 11.5529 18.1137 12.5961C18.1137 13.5294 17.5372 13.9823 16.3431 14.8197C15.3549 15.5059 14.6137 16.2333 14.6137 17.5785C14.6137 17.6334 14.6137 17.702 14.6137 17.7569C14.6137 18.4706 15.0117 18.8412 15.7118 18.8412ZM15.6843 22.9314C16.4804 22.9314 17.1666 22.3 17.1666 21.5039C17.1666 20.7079 16.4941 20.0764 15.6843 20.0764C14.8744 20.0764 14.2019 20.7216 14.2019 21.5039C14.2019 22.2863 14.8882 22.9314 15.6843 22.9314Z" fill="currentColor"/>
</svg>
