<svg width="32" height="32" viewBox="0 0 32 32" fill="none" xmlns="http://www.w3.org/2000/svg">
<path d="M30 16C30 23.7138 23.7275 30 16 30C8.28627 30 2 23.7138 2 16C2 8.27254 8.28627 2 16 2C23.7275 2 30 8.27254 30 16ZM14.147 21.6823C14.147 22.4921 14.8608 23.151 15.6843 23.151C16.5078 23.151 17.2215 22.5059 17.2215 21.6823C17.2215 20.8589 16.5215 20.2 15.6843 20.2C14.8471 20.2 14.147 20.8726 14.147 21.6823ZM11.7314 11.2098C11.6627 11.4294 11.6078 11.6627 11.6078 11.9098C11.6078 12.5412 12.1157 12.8843 12.5824 12.8843C13.0628 12.8843 13.3784 12.651 13.6392 12.3216L13.8862 11.9785C14.3941 11.1549 15.1216 10.6882 16.0686 10.6882C17.3451 10.6882 18.1824 11.4157 18.1824 12.4863C18.1824 13.447 17.5922 13.9137 16.3569 14.7785C15.3412 15.4922 14.5725 16.2333 14.5725 17.6334C14.5725 17.6883 14.5725 17.7569 14.5725 17.8118C14.5725 18.553 14.9843 18.9372 15.7118 18.9372C16.4255 18.9372 16.8647 18.4843 16.8647 17.9216C16.8647 17.8667 16.8647 17.7981 16.8647 17.7569C16.8647 16.9607 17.3176 16.4529 18.3059 15.8079C19.6784 14.902 20.6667 14.0784 20.6667 12.3765C20.6667 10.0157 18.5667 8.76666 16.151 8.76666C13.7078 8.76666 12.1157 9.90588 11.7314 11.2098Z" fill="currentColor"/>
</svg>
