<svg width="20" height="20" viewBox="0 0 20 20" fill="none" xmlns="http://www.w3.org/2000/svg">
  <path d="M9.36334 0.0377021C6.64909 0.287765 4.15425 1.5459 2.37454 3.56984C2.2242 3.74176 1.93978 4.11686 1.74068 4.40208C0.76956 5.8126 0.204767 7.35986 0.0381741 9.07905C-0.0227747 9.72374 -0.0146482 9.84877 0.0909964 9.99725C0.273843 10.259 0.306349 10.2668 1.61065 10.4505C3.02873 10.6498 3.18313 10.6576 3.3741 10.5325C3.57727 10.4036 3.65447 10.2239 3.65447 9.89175C3.65447 9.49321 3.76011 8.75474 3.87795 8.32104C4.55245 5.87511 6.65721 4.0309 9.26176 3.6011C9.73716 3.52296 10.9033 3.51123 11.334 3.58157C11.7119 3.64408 12.3905 3.80818 12.6343 3.89805C12.7358 3.93712 12.8537 3.9801 12.8943 3.99573C12.9634 4.01918 12.874 4.11686 12.3417 4.63652C11.9963 4.97254 11.6875 5.29293 11.6591 5.34373C11.5291 5.58598 11.6428 5.96107 11.8866 6.09782C12.0817 6.20723 18.1968 7.04338 18.4081 6.98867C18.5829 6.94179 18.7901 6.7347 18.8307 6.56669C18.8551 6.44948 18.0384 0.783984 17.9531 0.487034C17.8637 0.174455 17.5264 -0.00918469 17.2054 0.0767745C17.0754 0.11194 16.9047 0.2526 16.3684 0.760541C15.9986 1.11219 15.6858 1.40133 15.6695 1.40133C15.6533 1.40133 15.507 1.331 15.3444 1.24113C14.5521 0.811335 13.3819 0.393261 12.4595 0.209621C11.46 0.0142587 10.3182 -0.048257 9.36334 0.0377021Z" fill="currentColor"/>
  <path d="M16.7081 9.49026C16.4521 9.64265 16.3952 9.77158 16.3586 10.3108C16.2408 12.0339 15.5947 13.4366 14.3961 14.5931C13.4778 15.4722 12.2751 16.1013 11.0439 16.3475C9.8493 16.5819 8.48405 16.4881 7.38697 16.0974C7.26508 16.0505 7.13911 16.0075 7.10661 15.9958C7.06598 15.9841 7.26914 15.7614 7.69984 15.3433C8.24026 14.8197 8.36215 14.6869 8.38247 14.5658C8.43529 14.2923 8.31746 14.0461 8.07366 13.925C8.00052 13.8898 6.70841 13.6984 4.82712 13.4366L1.7035 13.0107L1.5816 13.0253L1.49018 13.0546C1.26264 13.1523 1.1702 13.3584 1.1702 13.5968C1.1702 13.8976 2.02348 19.5475 2.09255 19.6803C2.16163 19.821 2.34041 19.9421 2.53139 19.9812C2.78737 20.032 2.90521 19.9538 3.63253 19.2584L4.32734 18.5902L4.83119 18.8442C8.47999 20.7001 12.9455 20.2938 16.1636 17.8205C16.6309 17.461 17.3541 16.7734 17.7076 16.3553C18.1099 15.8786 18.6056 15.1362 18.8982 14.5853C19.5564 13.3389 19.979 11.776 19.9993 10.5413C20.0034 10.1779 19.9912 10.1115 19.918 10.0177C19.7352 9.78331 19.7027 9.77158 18.3781 9.58794C17.6873 9.49417 17.0616 9.41603 16.9803 9.41603C16.899 9.41603 16.7771 9.45119 16.7081 9.49026Z" fill="currentColor"/>
</svg>
