<svg width="32" height="32" viewBox="0 0 32 32" fill="currentColor" xmlns="http://www.w3.org/2000/svg">
<path d="M15.995 6.83938C16.5293 6.83938 16.9529 6.40675 16.9529 5.88358V2.95581C16.9529 2.43263 16.5293 2 15.995 2C15.4707 2 15.0472 2.43263 15.0472 2.95581V5.88358C15.0472 6.40675 15.4707 6.83938 15.995 6.83938ZM22.4782 9.53573C22.8513 9.89793 23.4563 9.90798 23.8394 9.53573L25.9165 7.46317C26.2795 7.09091 26.2795 6.47718 25.9165 6.10492C25.5434 5.74272 24.9385 5.74272 24.5654 6.10492L22.4782 8.18757C22.1153 8.55982 22.1153 9.16349 22.4782 9.53573ZM25.1602 16.005C25.1602 16.5282 25.5938 16.9508 26.1181 16.9508H29.0421C29.5665 16.9508 30 16.5282 30 16.005C30 15.4818 29.5665 15.0492 29.0421 15.0492H26.1181C25.5938 15.0492 25.1602 15.4818 25.1602 16.005ZM22.4782 22.4743C22.1153 22.8466 22.1153 23.4502 22.4782 23.8225L24.5654 25.9051C24.9385 26.2673 25.5434 26.2573 25.9165 25.8951C26.2795 25.5228 26.2795 24.9292 25.9165 24.5569L23.8293 22.4743C23.4563 22.1121 22.8513 22.1121 22.4782 22.4743ZM15.995 25.1707C15.4707 25.1707 15.0472 25.5932 15.0472 26.1164V29.0442C15.0472 29.5774 15.4707 30 15.995 30C16.5293 30 16.9529 29.5774 16.9529 29.0442V26.1164C16.9529 25.5932 16.5293 25.1707 15.995 25.1707ZM9.52176 22.4743C9.14871 22.1121 8.53367 22.1121 8.16061 22.4743L6.08354 24.5469C5.72056 24.9192 5.72056 25.5127 6.07346 25.885C6.44652 26.2472 7.05149 26.2573 7.42456 25.8951L9.51169 23.8225C9.87467 23.4502 9.87467 22.8466 9.52176 22.4743ZM6.82968 16.005C6.82968 15.4818 6.40619 15.0492 5.88189 15.0492H2.95787C2.43356 15.0492 2 15.4818 2 16.005C2 16.5282 2.43356 16.9508 2.95787 16.9508H5.88189C6.40619 16.9508 6.82968 16.5282 6.82968 16.005ZM9.51169 9.53573C9.87467 9.17353 9.87467 8.54978 9.52176 8.18757L7.43465 6.10492C7.07167 5.75278 6.4667 5.74272 6.09363 6.10492C5.73065 6.47718 5.73065 7.09091 6.08354 7.4531L8.16061 9.53573C8.53367 9.89793 9.13864 9.89793 9.51169 9.53573Z" fill="currentColor"/>
<path d="M15.9847 22.4844C19.5339 22.4844 22.4781 19.5465 22.4781 16.005C22.4781 12.4535 19.5339 9.51564 15.9847 9.51564C12.4356 9.51564 9.50146 12.4535 9.50146 16.005C9.50146 19.5465 12.4356 22.4844 15.9847 22.4844ZM15.9847 20.784C13.3632 20.784 11.1954 18.6209 11.1954 16.005C11.1954 13.3891 13.3632 11.2159 15.9847 11.2159C18.6063 11.2159 20.7842 13.3891 20.7842 16.005C20.7842 18.6209 18.6063 20.784 15.9847 20.784Z" fill="currentColor"/>
</svg>
