<svg width="20" height="20" viewBox="0 0 20 20" fill="none" xmlns="http://www.w3.org/2000/svg">
<path d="M13.5449 6.4549C12.6052 5.51283 11.3313 4.98033 10.0007 4.97347C9.34086 4.97088 8.68724 5.10066 8.07846 5.35511C7.46969 5.60957 6.91813 5.98354 6.45642 6.4549C5.75755 7.15787 5.28211 8.05176 5.08985 9.02419C4.89759 9.99661 4.9971 11.0042 5.37588 11.9202C5.75465 12.8362 6.39578 13.6198 7.21866 14.1725C8.04154 14.7252 9.00944 15.0222 10.0007 15.0263C10.6605 15.0289 11.3141 14.8991 11.9229 14.6447C12.5317 14.3902 13.0832 14.0163 13.5449 13.5449C14.487 12.6052 15.0195 11.3312 15.0263 10.0006C15.0291 9.34056 14.8994 8.68666 14.645 8.07762C14.3905 7.46858 14.0164 6.91678 13.5449 6.4549Z" fill="currentColor"/>
<path d="M10.0009 3.41357C10.1821 3.41028 10.355 3.33682 10.4831 3.20866C10.6113 3.08051 10.6847 2.90764 10.688 2.72643V0.687858C10.688 0.505427 10.6156 0.330467 10.4866 0.201469C10.3576 0.0724705 10.1826 0 10.0002 0C9.81775 0 9.64279 0.0724705 9.5138 0.201469C9.3848 0.330467 9.31232 0.505427 9.31232 0.687858V2.725C9.31526 2.9067 9.38876 3.08014 9.51726 3.20864C9.64576 3.33714 9.81919 3.41063 10.0009 3.41357Z" fill="currentColor"/>
<path d="M15.6365 5.34498L17.0922 3.88929C17.1548 3.82673 17.2044 3.75245 17.2383 3.67071C17.2722 3.58896 17.2896 3.50134 17.2896 3.41286C17.2896 3.32438 17.2722 3.23677 17.2383 3.15503C17.2044 3.07328 17.1548 2.99901 17.0922 2.93644C17.0297 2.87388 16.9554 2.82425 16.8736 2.79039C16.7919 2.75653 16.7043 2.7391 16.6158 2.7391C16.5273 2.7391 16.4397 2.75653 16.358 2.79039C16.2762 2.82425 16.2019 2.87388 16.1394 2.93644L14.6837 4.39214C14.5573 4.51849 14.4863 4.68987 14.4863 4.86856C14.4863 5.04725 14.5573 5.21863 14.6837 5.34498C14.81 5.47134 14.9814 5.54233 15.1601 5.54233C15.3388 5.54233 15.5102 5.47134 15.6365 5.34498Z" fill="currentColor"/>
<path d="M19.3121 9.31351H17.275C17.0926 9.31351 16.9176 9.38597 16.7886 9.51497C16.6596 9.64396 16.5872 9.81892 16.5872 10.0013C16.5872 10.1838 16.6596 10.3587 16.7886 10.4877C16.9176 10.6167 17.0926 10.6892 17.275 10.6892H19.3121C19.4946 10.6892 19.6695 10.6167 19.7985 10.4877C19.9275 10.3587 20 10.1838 20 10.0013C20 9.81892 19.9275 9.64396 19.7985 9.51497C19.6695 9.38597 19.4946 9.31351 19.3121 9.31351Z" fill="currentColor"/>
<path d="M15.6092 14.6564C15.4828 14.53 15.3114 14.459 15.1328 14.459C14.9541 14.459 14.7827 14.53 14.6563 14.6564C14.53 14.7827 14.459 14.9541 14.459 15.1328C14.459 15.3115 14.53 15.4829 14.6563 15.6092L16.112 17.0649C16.2384 17.1913 16.4098 17.2623 16.5885 17.2623C16.7672 17.2623 16.9386 17.1913 17.0649 17.0649C17.1913 16.9386 17.2623 16.7672 17.2623 16.5885C17.2623 16.4098 17.1913 16.2384 17.0649 16.1121L15.6092 14.6564Z" fill="currentColor"/>
<path d="M10.0009 16.5879C9.81965 16.5912 9.64678 16.6647 9.51862 16.7928C9.39047 16.921 9.31702 17.0939 9.31372 17.2751V19.3122C9.31372 19.4946 9.38618 19.6696 9.51518 19.7986C9.64417 19.9276 9.81913 20.0001 10.0016 20.0001C10.184 20.0001 10.359 19.9276 10.488 19.7986C10.617 19.6696 10.6894 19.4946 10.6894 19.3122V17.2751C10.6861 17.0936 10.6125 16.9205 10.484 16.7924C10.3555 16.6642 10.1823 16.5909 10.0009 16.5879Z" fill="currentColor"/>
<path d="M4.36519 14.6564L2.9095 16.1121C2.84694 16.1746 2.79731 16.2489 2.76345 16.3307C2.72959 16.4124 2.71216 16.5 2.71216 16.5885C2.71216 16.677 2.72959 16.7646 2.76345 16.8463C2.79731 16.9281 2.84694 17.0024 2.9095 17.0649C2.97206 17.1275 3.04634 17.1771 3.12808 17.211C3.20983 17.2448 3.29744 17.2623 3.38592 17.2623C3.4744 17.2623 3.56201 17.2448 3.64376 17.211C3.7255 17.1771 3.79978 17.1275 3.86234 17.0649L5.31803 15.6092C5.3806 15.5467 5.43023 15.4724 5.46408 15.3906C5.49794 15.3089 5.51537 15.2213 5.51537 15.1328C5.51537 15.0443 5.49794 14.9567 5.46408 14.875C5.43023 14.7932 5.3806 14.7189 5.31803 14.6564C5.25547 14.5938 5.18119 14.5442 5.09945 14.5103C5.0177 14.4764 4.93009 14.459 4.84161 14.459C4.75313 14.459 4.66552 14.4764 4.58378 14.5103C4.50203 14.5442 4.42776 14.5938 4.36519 14.6564Z" fill="currentColor"/>
<path d="M3.41358 10.0006C3.41028 9.81944 3.33683 9.64657 3.20867 9.51841C3.08051 9.39026 2.90764 9.31681 2.72643 9.31351H0.687859C0.505427 9.31351 0.330468 9.38597 0.201469 9.51497C0.0724706 9.64396 0 9.81892 0 10.0013C0 10.1838 0.0724706 10.3587 0.201469 10.4877C0.330468 10.6167 0.505427 10.6892 0.687859 10.6892H2.72501C2.90671 10.6863 3.08014 10.6128 3.20864 10.4843C3.33714 10.3558 3.41064 10.1823 3.41358 10.0006Z" fill="currentColor"/>
<path d="M4.36519 5.34498C4.49155 5.47134 4.66292 5.54233 4.84161 5.54233C5.02031 5.54233 5.19168 5.47134 5.31803 5.34498C5.44439 5.21863 5.51537 5.04725 5.51537 4.86856C5.51537 4.68987 5.44439 4.51849 5.31803 4.39214L3.86234 2.93644C3.73599 2.81009 3.56461 2.7391 3.38592 2.7391C3.20723 2.7391 3.03585 2.81009 2.9095 2.93644C2.78315 3.0628 2.71216 3.23417 2.71216 3.41286C2.71216 3.59156 2.78315 3.76294 2.9095 3.88929L4.36519 5.34498Z" fill="currentColor"/>
</svg>
