<svg width="32" height="32" viewBox="0 0 32 32" fill="currentColor" xmlns="http://www.w3.org/2000/svg">
<path d="M15.995 6.83893C16.5293 6.83893 16.9529 6.40635 16.9529 5.88322V2.95572C16.9529 2.43259 16.5293 2 15.995 2C15.4707 2 15.0472 2.43259 15.0472 2.95572V5.88322C15.0472 6.40635 15.4707 6.83893 15.995 6.83893ZM22.4782 9.53504C22.8513 9.8972 23.4563 9.90725 23.8394 9.53504L25.9165 7.46267C26.2795 7.09044 26.2795 6.47676 25.9165 6.10454C25.5434 5.74238 24.9385 5.74238 24.5654 6.10454L22.4782 8.187C22.1153 8.55922 22.1153 9.16283 22.4782 9.53504ZM25.1602 16.0037C25.1602 16.5269 25.5938 16.9494 26.1181 16.9494H29.0421C29.5665 16.9494 30 16.5269 30 16.0037C30 15.4806 29.5665 15.048 29.0421 15.048H26.1181C25.5938 15.048 25.1602 15.4806 25.1602 16.0037ZM22.4782 22.4724C22.1153 22.8446 22.1153 23.4482 22.4782 23.8205L24.5654 25.9029C24.9385 26.2651 25.5434 26.255 25.9165 25.8929C26.2795 25.5206 26.2795 24.9271 25.9165 24.5548L23.8293 22.4724C23.4563 22.1103 22.8513 22.1103 22.4782 22.4724ZM15.995 25.1685C15.4707 25.1685 15.0472 25.591 15.0472 26.1142V29.0417C15.0472 29.5749 15.4707 29.9974 15.995 29.9974C16.5293 29.9974 16.9529 29.5749 16.9529 29.0417V26.1142C16.9529 25.591 16.5293 25.1685 15.995 25.1685ZM9.52176 22.4724C9.14871 22.1103 8.53367 22.1103 8.16061 22.4724L6.08354 24.5448C5.72056 24.9171 5.72056 25.5106 6.07346 25.8828C6.44652 26.2449 7.05149 26.255 7.42456 25.8929L9.51169 23.8205C9.87467 23.4482 9.87467 22.8446 9.52176 22.4724ZM6.82968 16.0037C6.82968 15.4806 6.40619 15.048 5.88189 15.048H2.95787C2.43356 15.048 2 15.4806 2 16.0037C2 16.5269 2.43356 16.9494 2.95787 16.9494H5.88189C6.40619 16.9494 6.82968 16.5269 6.82968 16.0037ZM9.51169 9.53504C9.87467 9.17287 9.87467 8.54918 9.52176 8.187L7.43465 6.10454C7.07167 5.75243 6.4667 5.74238 6.09363 6.10454C5.73065 6.47676 5.73065 7.09044 6.08354 7.4526L8.16061 9.53504C8.53367 9.8972 9.13864 9.8972 9.51169 9.53504Z" fill="currentColor"/>
<path d="M15.9852 22.4825C19.5344 22.4825 22.4786 19.5449 22.4786 16.0037C22.4786 12.4525 19.5344 9.51495 15.9852 9.51495C12.4361 9.51495 9.50195 12.4525 9.50195 16.0037C9.50195 19.5449 12.4361 22.4825 15.9852 22.4825Z" fill="currentColor"/>
</svg>
