<svg width="32" height="32" viewBox="0 0 32 32" fill="currentColor" xmlns="http://www.w3.org/2000/svg">
<path d="M1.0451 4.42776H30.9425C31.5273 4.42776 32 3.97986 32 3.38266C32 2.7979 31.5273 2.35 30.9425 2.35H1.0451C0.4479 2.35 0 2.7979 0 3.38266C0 3.97986 0.4479 4.42776 1.0451 4.42776ZM1.0451 12.8508H30.9425C31.5273 12.8508 32 12.3905 32 11.8057C32 11.2209 31.5273 10.7606 30.9425 10.7606H1.0451C0.4479 10.7606 0 11.2209 0 11.8057C0 12.3905 0.4479 12.8508 1.0451 12.8508ZM1.0451 21.2614H30.9425C31.5273 21.2614 32 20.8135 32 20.2287C32 19.6315 31.5273 19.1836 30.9425 19.1836H1.0451C0.4479 19.1836 0 19.6315 0 20.2287C0 20.8135 0.4479 21.2614 1.0451 21.2614ZM1.0451 29.6843H30.9425C31.5273 29.6843 32 29.224 32 28.6392C32 28.0545 31.5273 27.6066 30.9425 27.6066H1.0451C0.4479 27.6066 0 28.0545 0 28.6392C0 29.224 0.4479 29.6843 1.0451 29.6843Z" fill="currentColor"/>
</svg>
