<svg width="32" height="32" viewBox="0 0 32 32" fill="currentColor" xmlns="http://www.w3.org/2000/svg">
<path d="M1.0451 4.42776H30.9425C31.5273 4.42776 32 3.97986 32 3.38266C32 2.7979 31.5273 2.35 30.9425 2.35H1.0451C0.4479 2.35 0 2.7979 0 3.38266C0 3.97986 0.4479 4.42776 1.0451 4.42776ZM6.79316 12.8508H25.1944C25.7792 12.8508 26.2395 12.3905 26.2395 11.8057C26.2395 11.2209 25.7792 10.7606 25.1944 10.7606H6.79316C6.2084 10.7606 5.74806 11.2209 5.74806 11.8057C5.74806 12.3905 6.2084 12.8508 6.79316 12.8508ZM1.0451 21.2614H30.9425C31.5273 21.2614 32 20.8135 32 20.2287C32 19.6315 31.5273 19.1836 30.9425 19.1836H1.0451C0.4479 19.1836 0 19.6315 0 20.2287C0 20.8135 0.4479 21.2614 1.0451 21.2614ZM6.79316 29.6843H25.1944C25.7792 29.6843 26.2395 29.224 26.2395 28.6392C26.2395 28.0545 25.7792 27.6066 25.1944 27.6066H6.79316C6.2084 27.6066 5.74806 28.0545 5.74806 28.6392C5.74806 29.224 6.2084 29.6843 6.79316 29.6843Z" fill="currentColor"/>
</svg>
