<svg width="20" height="18" viewBox="0 0 20 18" fill="none" xmlns="http://www.w3.org/2000/svg">
<path d="M10.7909 11.763L8.48182 9.504L8.50909 9.477C10.0909 7.731 11.2182 5.724 11.8818 3.6H14.5455V1.8H8.18182V0H6.36364V1.8H0V3.591H10.1545C9.54545 5.328 8.58182 6.975 7.27273 8.415C6.42727 7.488 5.72727 6.471 5.17273 5.4H3.35455C4.01818 6.867 4.92727 8.253 6.06364 9.504L1.43636 14.022L2.72727 15.3L7.27273 10.8L10.1 13.599L10.7909 11.763ZM15.9091 7.2H14.0909L10 18H11.8182L12.8364 15.3H17.1545L18.1818 18H20L15.9091 7.2ZM13.5273 13.5L15 9.603L16.4727 13.5H13.5273Z" fill="currentColor"/>
</svg>
