<svg width="32" height="32" viewBox="0 0 32 32" fill="currentColor" xmlns="http://www.w3.org/2000/svg">
<path d="M12.2784 25.9515C12.7562 25.9515 13.0705 25.6497 13.0579 25.2097L12.6682 11.7566C12.6556 11.3165 12.3412 11.0274 11.8886 11.0274C11.4108 11.0274 11.0965 11.3292 11.1091 11.7692L11.4863 25.2097C11.4989 25.6623 11.8132 25.9515 12.2784 25.9515ZM16 25.9515C16.4778 25.9515 16.8172 25.6497 16.8172 25.2097V11.7692C16.8172 11.3292 16.4778 11.0274 16 11.0274C15.5222 11.0274 15.1953 11.3292 15.1953 11.7692V25.2097C15.1953 25.6497 15.5222 25.9515 16 25.9515ZM19.7341 25.9515C20.1867 25.9515 20.5011 25.6623 20.5137 25.2097L20.8908 11.7692C20.9035 11.3292 20.5891 11.0274 20.1113 11.0274C19.6587 11.0274 19.3443 11.3165 19.3318 11.7692L18.9546 25.2097C18.942 25.6497 19.2564 25.9515 19.7341 25.9515ZM10.4804 7.74584H12.4795V5.05523C12.4795 4.33857 12.9825 3.87337 13.7368 3.87337H18.2379C18.9924 3.87337 19.4953 4.33857 19.4953 5.05523V7.74584H21.4943V4.9295C21.4943 3.10642 20.3125 2 18.3762 2H13.5985C11.6623 2 10.4804 3.10642 10.4804 4.9295V7.74584ZM4.77232 8.75167H27.2402C27.7557 8.75167 28.1706 8.31163 28.1706 7.79613C28.1706 7.28064 27.7557 6.85316 27.2402 6.85316H4.77232C4.2694 6.85316 3.82935 7.28064 3.82935 7.79613C3.82935 8.3242 4.2694 8.75167 4.77232 8.75167ZM10.2416 30H21.771C23.5688 30 24.7759 28.8307 24.8639 27.0328L25.744 8.51279H23.7198L22.8774 26.8191C22.8522 27.5734 22.3116 28.1015 21.5698 28.1015H10.4176C9.70092 28.1015 9.16028 27.5608 9.12256 26.8191L8.22988 8.51279H6.25592L7.14861 27.0453C7.23662 28.8433 8.41847 30 10.2416 30Z" fill="currentColor"/>
</svg>
