<svg width="32" height="32" viewBox="0 0 32 32" fill="currentColor" xmlns="http://www.w3.org/2000/svg">
<path d="M12.1652 26.1778C11.6749 26.1778 11.3606 25.8886 11.3354 25.4109L10.9582 11.568C10.9456 11.1028 11.26 10.8011 11.7629 10.8011C12.2281 10.8011 12.555 11.0903 12.5676 11.5554L12.9699 25.4109C12.9825 25.8761 12.6556 26.1778 12.1652 26.1778ZM16 26.1778C15.5096 26.1778 15.1702 25.8761 15.1702 25.4109V11.568C15.1702 11.1028 15.5096 10.8011 16 10.8011C16.4903 10.8011 16.8424 11.1028 16.8424 11.568V25.4109C16.8424 25.8761 16.4903 26.1778 16 26.1778ZM19.8473 26.1778C19.357 26.1778 19.03 25.8761 19.0426 25.4109L19.4324 11.568C19.4449 11.0903 19.7719 10.8011 20.237 10.8011C20.74 10.8011 21.0543 11.1028 21.0417 11.568L20.6646 25.4109C20.6394 25.8886 20.3251 26.1778 19.8473 26.1778ZM10.4804 7.74584H12.4795V5.05523C12.4795 4.33857 12.9825 3.87337 13.7368 3.87337H18.2379C18.9924 3.87337 19.4953 4.33857 19.4953 5.05523V7.74584H21.4943V4.9295C21.4943 3.10642 20.3125 2 18.3762 2H13.5985C11.6623 2 10.4804 3.10642 10.4804 4.9295V7.74584ZM4.77232 8.75167H27.2402C27.7557 8.75167 28.1706 8.31163 28.1706 7.79613C28.1706 7.28064 27.7557 6.85316 27.2402 6.85316H4.77232C4.2694 6.85316 3.82935 7.28064 3.82935 7.79613C3.82935 8.3242 4.2694 8.75167 4.77232 8.75167ZM10.2416 30H21.771C23.5688 30 24.7759 28.8307 24.8639 27.0328L25.744 8.48765H6.25592L7.14861 27.0453C7.23662 28.8433 8.41847 30 10.2416 30Z" fill="currentColor"/>
</svg>
