<svg width="20" height="20" viewBox="0 0 20 20" fill="none" xmlns="http://www.w3.org/2000/svg">
<path d="M0 6.57925V13.4208H4.44444L10 19.122V0.877993L4.44444 6.57925H0ZM15 10C14.9998 9.04461 14.7396 8.10826 14.2489 7.2964C13.7581 6.48453 13.0562 5.82941 12.2222 5.40479V14.5838C13.8667 13.7514 15 12.0182 15 10ZM12.2222 0V2.34892C15.4333 3.32953 17.7778 6.38541 17.7778 10C17.7778 13.6146 15.4333 16.6705 12.2222 17.6511V20C16.6778 18.9624 20 14.8803 20 10C20 5.11973 16.6778 1.03763 12.2222 0Z" fill="currentColor"/>
</svg>
